<?xml version="1.0" encoding="iso-8859-1"?>
<!-- Generator: Adobe Illustrator 19.0.0, SVG Export Plug-In . SVG Version: 6.00 Build 0)  -->
<svg version="1.1" id="Capa_1" xmlns="http://www.w3.org/2000/svg" xmlns:xlink="http://www.w3.org/1999/xlink" x="0px" y="0px"
	 viewBox="0 0 58 58" style="enable-background:new 0 0 58 58;" xml:space="preserve">
<path style="fill:#8697CB;" d="M29,0c0,0-6.667,8-22,8v19.085c0,9.966,4.328,19.577,12.164,25.735C21.937,55,25.208,56.875,29,58
	c3.792-1.125,7.062-3,9.836-5.18C46.672,46.662,51,37.051,51,27.085V8C35.667,8,29,0,29,0z"/>
<path style="fill:#556080;" d="M29,51.661c-2.123-0.833-4.178-2.025-6.128-3.558C16.69,43.245,13,35.388,13,27.085V13.628
	c7.391-0.943,12.639-3.514,16-5.798c3.361,2.284,8.609,4.855,16,5.798v13.457c0,8.303-3.69,16.16-9.871,21.018
	C33.178,49.636,31.123,50.828,29,51.661z"/>
<path style="fill:#F0C419;" d="M34,38l-2.687-10.747C32.331,26.528,33,25.345,33,24c0-2.209-1.791-4-4-4s-4,1.791-4,4
	c0,1.345,0.669,2.528,1.687,3.253L24,38H34z"/>
<g>
</g>
<g>
</g>
<g>
</g>
<g>
</g>
<g>
</g>
<g>
</g>
<g>
</g>
<g>
</g>
<g>
</g>
<g>
</g>
<g>
</g>
<g>
</g>
<g>
</g>
<g>
</g>
<g>
</g>
</svg>
